<svg id="Layer_1" data-name="Layer 1" xmlns="http://www.w3.org/2000/svg" viewBox="0 0 297.04 71.91"><defs><style>.cls-1{fill:#fff;}.cls-2{fill:#f26940;}</style></defs><path class="cls-1" d="M10.46,56.66H.44V2.11h10v34.4l14.83-18.8H36.74L23.77,34l13,22.66H25.29l-7.9-14.2-6.93,9.19Z"/><path class="cls-2" d="M52.41,7a6.22,6.22,0,0,1-.54,2.62,6.56,6.56,0,0,1-1.43,2A6.76,6.76,0,0,1,43.1,13.1,6.62,6.62,0,0,1,41,11.68a7,7,0,0,1-1.45-2,6.58,6.58,0,0,1,0-5.15A6.8,6.8,0,0,1,41,2.35,6.71,6.71,0,0,1,48.34.93a7,7,0,0,1,2.14,1.42,6.62,6.62,0,0,1,1.43,2.11A6.47,6.47,0,0,1,52.41,7Z"/><rect class="cls-1" x="40.68" y="17.64" width="10.02" height="39.03"/><path class="cls-1" d="M68.22,56.66h-10v-39h2.41l3.28,3.79a17.54,17.54,0,0,1,11.81-4.57,16.91,16.91,0,0,1,6.73,1.37A17.53,17.53,0,0,1,88,22a17.75,17.75,0,0,1,3.73,5.57,16.94,16.94,0,0,1,1.37,6.8V56.67H83.2V34.36a7.42,7.42,0,0,0-.6-2.9,7.56,7.56,0,0,0-4-4,7.29,7.29,0,0,0-2.88-.57,7.55,7.55,0,0,0-5.33,2.18,7.79,7.79,0,0,0-1.62,2.38,7.58,7.58,0,0,0-.58,2.9Z"/><path class="cls-1" d="M119.28,56.66a16.89,16.89,0,0,1-6.79-1.37A17.63,17.63,0,0,1,103.18,46a17.08,17.08,0,0,1-1.31-6.77V27.62H97V17.71h4.85V2.11h9.9v15.6h15v9.91H111.73V39.21a7.55,7.55,0,0,0,4.6,7,7.28,7.28,0,0,0,3,.6h7.54v9.91Z"/><path class="cls-1" d="M153.82,56.66H131.09V46.75h22.73a2.49,2.49,0,0,0,2.48-2.48,1.36,1.36,0,0,0-.73-1.38,4,4,0,0,0-1.75-.33H143.45a12,12,0,0,1-4.84-1A12.48,12.48,0,0,1,132,34.92a12.39,12.39,0,0,1,6.58-16.28,12.2,12.2,0,0,1,4.84-1H163.6v9.9H143.45A2.51,2.51,0,0,0,141,30a2.56,2.56,0,0,0,.73,1.8,2.34,2.34,0,0,0,1.75.74H153.8a13.34,13.34,0,0,1,4.81.87,12,12,0,0,1,3.94,2.38,11.24,11.24,0,0,1,2.65,3.68,11.05,11.05,0,0,1,1,4.7,11.83,11.83,0,0,1-1,4.83A12.79,12.79,0,0,1,162.55,53a12.19,12.19,0,0,1-8.75,3.63Z"/><path class="cls-1" d="M181.44,56.66h-9.95V2.11h9.95V19.35a11.87,11.87,0,0,1,3.68-1.92,14.1,14.1,0,0,1,3.87-.57,17.11,17.11,0,0,1,6.77,1.37A17.28,17.28,0,0,1,201.29,22,18,18,0,0,1,205,27.56a17.11,17.11,0,0,1,1.37,6.8V56.67h-10V34.36h.07a7.07,7.07,0,0,0-.59-2.9,7.5,7.5,0,0,0-4-4A7.29,7.29,0,0,0,189,26.9a7.63,7.63,0,0,0-3,.57,7.39,7.39,0,0,0-2.41,1.61A7.67,7.67,0,0,0,182,31.46a7.07,7.07,0,0,0-.59,2.9Z"/><path class="cls-1" d="M251.16,36.8a21.11,21.11,0,0,1-1.57,8.12,20.49,20.49,0,0,1-4.26,6.52A20.12,20.12,0,0,1,239,55.78a19.82,19.82,0,0,1-15.52,0A20.09,20.09,0,0,1,212.85,45a21.1,21.1,0,0,1-1.56-8.12,21.28,21.28,0,0,1,1.56-8.23,20.22,20.22,0,0,1,4.29-6.54,19.78,19.78,0,0,1,6.34-4.32,19.26,19.26,0,0,1,7.74-1.56A20.15,20.15,0,0,1,239,17.65a19,19,0,0,1,6.33,4.17,20.1,20.1,0,0,1,4.26,6.53A22.23,22.23,0,0,1,251.16,36.8Zm-10,0a11.61,11.61,0,0,0-.79-4.36,10.13,10.13,0,0,0-2.13-3.34A9.24,9.24,0,0,0,235.06,27a10.21,10.21,0,0,0-7.68,0,9.07,9.07,0,0,0-3.14,2.15,10.46,10.46,0,0,0-2.09,3.34,11.79,11.79,0,0,0-.77,4.36,11.28,11.28,0,0,0,.77,4.19,10.66,10.66,0,0,0,2.09,3.36,9.83,9.83,0,0,0,3.14,2.23,9,9,0,0,0,3.84.82,9.71,9.71,0,0,0,3.84-.76,9.49,9.49,0,0,0,3.16-2.15,9.91,9.91,0,0,0,2.13-3.35A11.47,11.47,0,0,0,241.14,36.8Z"/><path class="cls-1" d="M266.68,71.52h-10V17.64h2.41l4,4.69a26.19,26.19,0,0,1,2.95-2.4A21.8,21.8,0,0,1,269.33,18a20.28,20.28,0,0,1,3.59-1.3,14.89,14.89,0,0,1,3.76-.46,20,20,0,0,1,7.75,1.47,19,19,0,0,1,6.31,4.13A19.42,19.42,0,0,1,295,28.33a21.92,21.92,0,0,1,1.57,8.47A22.91,22.91,0,0,1,295,45.46,19.31,19.31,0,0,1,290.74,52,18.48,18.48,0,0,1,284.41,56a20.75,20.75,0,0,1-7.74,1.43,12.07,12.07,0,0,1-2.61-.29,19.35,19.35,0,0,1-2.56-.78c-.83-.34-1.66-.7-2.47-1.12s-1.6-.84-2.35-1.27Zm19.94-34.73a12.08,12.08,0,0,0-.79-4.45A9.94,9.94,0,0,0,283.7,29a9.3,9.3,0,0,0-3.17-2.12,10.22,10.22,0,0,0-3.86-.73,10,10,0,0,0-3.85.73A9.14,9.14,0,0,0,269.67,29a9.93,9.93,0,0,0-2.13,3.33,11.68,11.68,0,0,0-.79,4.45,11.39,11.39,0,0,0,.79,4.33,9.71,9.71,0,0,0,2.13,3.36,9.3,9.3,0,0,0,3.15,2.15,10.16,10.16,0,0,0,7.71,0,9.53,9.53,0,0,0,3.17-2.15,9.86,9.86,0,0,0,2.13-3.36,11.63,11.63,0,0,0,.79-4.3Z"/></svg>